<?xml version="1.0" encoding="UTF-8"?>
<svg width="18px" height="14px" viewBox="0 0 18 14" version="1.1" xmlns="http://www.w3.org/2000/svg" xmlns:xlink="http://www.w3.org/1999/xlink">
    <title>Arrow / Long / Right</title>
    <defs>
        <path d="M17.7889156,5.87804223 C18.0694336,6.14969766 18.0700226,6.59967203 17.79269,6.86879659 L12.1494019,12.5372669 C11.8775688,12.8204861 11.4255879,12.8204861 11.1461602,12.5398079 C10.8762227,12.2692946 10.8767899,11.8206327 11.1474964,11.5392507 L15.5945243,7.08067818 L0.700340401,7.08067818 C0.31160257,7.08067818 0,6.76195257 0,6.3704392 C0,5.98078409 0.309799016,5.66937911 0.700523648,5.66874531 L15.59474,5.66874546 L11.1461602,1.20026164 C10.8763698,0.929895719 10.8763698,0.481182697 11.1460095,0.210336517 C11.4251799,-0.0700829059 11.8756626,-0.0704835666 12.1480879,0.211363424 L17.7889156,5.87804223 Z" id="path-1"></path>
        <rect id="path-3" x="0" y="0" width="18" height="19.75"></rect>
    </defs>
    <g id="DESiGN." stroke="none" stroke-width="1" fill="none" fill-rule="evenodd">
        <g id="1c_home_lola_v_praag_mobiel" transform="translate(-37.000000, -559.000000)">
            <g id="View-project" transform="translate(37.000000, 551.000000)">
                <g id="Arrow-/-Long-/-Right" transform="translate(0.000000, 8.500000)">
                    <mask id="mask-2" fill="white">
                        <use xlink:href="#path-1"></use>
                    </mask>
                    <g id="Shape" fill-rule="nonzero"></g>
                    <g id="â†³ðŸŽ¨Color" mask="url(#mask-2)">
                        <g transform="translate(0.000000, -3.500000)">
                            <mask id="mask-4" fill="white">
                                <use xlink:href="#path-3"></use>
                            </mask>
                            <use id="Rectangular" stroke="none" fill="#FF67D9" fill-rule="evenodd" xlink:href="#path-3"></use>
                            <g id="Group" stroke="none" stroke-width="1" fill="none" fill-rule="evenodd" mask="url(#mask-4)" opacity="0.100000001">
                                <g id="â†³âš™ï¸State">
                                    <rect id="Rectangular" x="0" y="0" width="18" height="19.75"></rect>
                                </g>
                            </g>
                        </g>
                    </g>
                </g>
            </g>
        </g>
    </g>
</svg>