<?xml version="1.0" encoding="UTF-8"?>
<svg width="200px" height="60px" viewBox="0 0 200 60" version="1.1" xmlns="http://www.w3.org/2000/svg" xmlns:xlink="http://www.w3.org/1999/xlink">
    <title>Logo</title>
    <defs>
        <polygon id="path-1" points="0 0 59.7411887 0 59.7411887 59.7409382 0 59.7409382"></polygon>
    </defs>
    <g id="DESiGN." stroke="none" stroke-width="1" fill="none" fill-rule="evenodd">
        <g id="1a_home_lola_v_praag_desktop" transform="translate(-620.000000, -40.000000)">
            <g id="Logo" transform="translate(620.000000, 40.000000)">
                <polygon id="Fill-1" fill="#FF67D9" points="0 1.51260325 0 58.2295877 34.4075272 58.2295877 34.4075272 50.2882327 9.07386563 50.2882327 9.07386563 1.51260325"></polygon>
                <g id="Group-9" transform="translate(36.973591, 0.000000)">
                    <g id="Group-4">
                        <mask id="mask-2" fill="white">
                            <use xlink:href="#path-1"></use>
                        </mask>
                        <g id="Clip-3"></g>
                        <path d="M29.9463874,7.93985166 C18.4521561,7.93985166 9.15028504,17.7716475 9.15028504,29.8709702 C9.15028504,41.9702929 18.4521561,51.800836 29.9463874,51.800836 C41.4406187,51.800836 50.7424898,41.9702929 50.7424898,29.8709702 C50.7424898,17.7716475 41.4406187,7.93985166 29.9463874,7.93985166 M29.869968,59.7409382 C13.3846721,59.7409382 0,46.356266 0,29.8709702 C0,13.3844216 13.3846721,-0.000250555449 29.869968,-0.000250555449 C46.3565166,-0.000250555449 59.7411887,13.3844216 59.7411887,29.8709702 C59.7411887,46.356266 46.3565166,59.7409382 29.869968,59.7409382" id="Fill-2" fill="#FF67D9" mask="url(#mask-2)"></path>
                    </g>
                    <polygon id="Fill-5" fill="#FF67D9" points="103.140274 58.2289613 68.7327469 58.2289613 68.7327469 1.51197686 77.8066125 1.51197686 77.8066125 50.2888591 103.140274 50.2888591"></polygon>
                    <path d="M144.497834,35.6937536 L135.877473,13.4607157 L127.25586,35.6937536 L144.497834,35.6937536 Z M163.026409,58.2287108 L153.194613,58.2287108 L147.523291,43.5586892 L124.231656,43.5586892 L118.560333,58.2287108 L108.804957,58.2287108 L131.264748,1.51172631 L140.565366,1.51172631 L163.026409,58.2287108 Z" id="Fill-7" fill="#FF67D9"></path>
                </g>
            </g>
        </g>
    </g>
</svg>