<?xml version="1.0" encoding="UTF-8"?>
<svg width="120px" height="36px" viewBox="0 0 120 36" version="1.1" xmlns="http://www.w3.org/2000/svg" xmlns:xlink="http://www.w3.org/1999/xlink">
    <title>Logo</title>
    <defs>
        <polygon id="path-1" points="-5.34091065e-15 0 35.8447132 0 35.8447132 35.8445629 -5.34091065e-15 35.8445629"></polygon>
    </defs>
    <g id="DESiGN." stroke="none" stroke-width="1" fill="none" fill-rule="evenodd">
        <g id="1c_home_lola_v_praag_mobiel" transform="translate(-128.000000, -20.000000)">
            <g id="Logo" transform="translate(128.000000, 20.000000)">
                <polygon id="Fill-1" fill="#FF67D9" points="0 0.907561951 0 34.9377526 20.6445163 34.9377526 20.6445163 30.1729396 5.44431938 30.1729396 5.44431938 0.907561951"></polygon>
                <g id="Group-9" transform="translate(22.184154, 0.000000)">
                    <g id="Group-4" transform="translate(-0.000000, 0.000000)">
                        <mask id="mask-2" fill="white">
                            <use xlink:href="#path-1"></use>
                        </mask>
                        <g id="Clip-3"></g>
                        <path d="M17.9678324,4.763911 C11.0712937,4.763911 5.49017102,10.6629885 5.49017102,17.9225821 C5.49017102,25.1821757 11.0712937,31.0805016 17.9678324,31.0805016 C24.8643712,31.0805016 30.4454939,25.1821757 30.4454939,17.9225821 C30.4454939,10.6629885 24.8643712,4.763911 17.9678324,4.763911 M17.9219808,35.8445629 C8.03080329,35.8445629 -5.34091065e-15,27.8137596 -5.34091065e-15,17.9225821 C-5.34091065e-15,8.03065295 8.03080329,-0.00015033327 17.9219808,-0.00015033327 C27.81391,-0.00015033327 35.8447132,8.03065295 35.8447132,17.9225821 C35.8447132,27.8137596 27.81391,35.8445629 17.9219808,35.8445629" id="Fill-2" fill="#FF67D9" mask="url(#mask-2)"></path>
                    </g>
                    <polygon id="Fill-5" fill="#FF67D9" points="61.8841645 34.9373768 41.2396481 34.9373768 41.2396481 0.907186118 46.6839675 0.907186118 46.6839675 30.1733155 61.8841645 30.1733155"></polygon>
                    <path d="M86.6987002,21.4162522 L81.526484,8.07642943 L76.3535162,21.4162522 L86.6987002,21.4162522 Z M97.8158455,34.9372265 L91.916768,34.9372265 L88.5139744,26.1352135 L74.5389936,26.1352135 L71.1362001,34.9372265 L65.2829742,34.9372265 L78.7588485,0.907035785 L84.3392195,0.907035785 L97.8158455,34.9372265 Z" id="Fill-7" fill="#FF67D9"></path>
                </g>
            </g>
        </g>
    </g>
</svg>