<?xml version="1.0" encoding="UTF-8"?>
<svg width="223px" height="190px" viewBox="0 0 223 190" version="1.1" xmlns="http://www.w3.org/2000/svg" xmlns:xlink="http://www.w3.org/1999/xlink">
    <title>Lola - woordmerk</title>
    <defs>
        <polygon id="path-1" points="0 1.15681411e-14 42 1.15681411e-14 42 85 0 85"></polygon>
        <polygon id="path-3" points="2.31806353e-14 0 103 0 103 147 2.31806353e-14 147"></polygon>
        <polygon id="path-5" points="0 0 117 0 117 190 0 190"></polygon>
    </defs>
    <g id="Symbols" stroke="none" stroke-width="1" fill="none" fill-rule="evenodd">
        <g id="Footer_roze_desktop" transform="translate(-55.000000, -109.000000)">
            <g id="Lola---woordmerk" transform="translate(55.000000, 109.000000)">
                <path d="M24.7105263,30.6464896 C10.8667763,45.579884 3.28947368,64.7309838 3.28947368,84.9995815 C3.28947368,105.271414 10.8667763,124.420896 24.7105263,139.354291 L24.7105263,30.6464896 Z M26.3552632,145 C25.9276316,145 25.5082237,144.836661 25.1940789,144.529389 C8.94736842,128.607875 0,107.467596 0,84.9995815 C0,62.5331841 8.94736842,41.3929056 25.1940789,25.4713909 C25.6644737,25.0104836 26.3717105,24.8730201 26.9868421,25.1236889 C27.6003289,25.3743578 28,25.9630252 28,26.6163815 L28,143.382782 C28,144.037755 27.6003289,144.626423 26.9868421,144.877091 C26.7828947,144.961187 26.5674342,145 26.3552632,145 L26.3552632,145 Z" id="Fill-1" fill="#E16C00"></path>
                <g id="Group-5" transform="translate(181.000000, 105.000000)">
                    <mask id="mask-2" fill="white">
                        <use xlink:href="#path-1"></use>
                    </mask>
                    <g id="Clip-4"></g>
                    <path d="M3.17231326,81.7438578 L37.8774203,81.7438578 L3.17231326,8.68253821 L3.17231326,81.7438578 Z M40.4136848,85 L1.58615663,85 C0.709012013,85 0,84.2706241 0,83.3719289 L0,1.62810605 C0,0.869424906 0.509156278,0.211684174 1.22927139,0.0407367062 C1.95255881,-0.126954619 2.68853549,0.234477169 3.01052528,0.915010897 L41.8396396,82.6588337 C42.0791492,83.1635358 42.0490122,83.7594098 41.7587456,84.2348066 C41.4700651,84.7102033 40.9609088,85 40.4136848,85 L40.4136848,85 Z" id="Fill-3" fill="#E16C00" mask="url(#mask-2)"></path>
                </g>
                <g id="Group-8" transform="translate(66.000000, 0.000000)">
                    <mask id="mask-4" fill="white">
                        <use xlink:href="#path-3"></use>
                    </mask>
                    <g id="Clip-7"></g>
                    <path d="M3.26238439,143.776065 L72.9191847,143.776065 C89.9700367,128.446253 99.7376156,106.694362 99.7376156,83.9946345 C99.7376156,39.4575817 63.1385563,3.223774 18.1551691,3.223774 C13.1669834,3.223774 8.16574813,3.67996083 3.26238439,4.57943875 L3.26238439,143.776065 Z M73.5471937,147 L1.6311922,147 C0.729142911,147 0,146.277839 0,145.388032 L0,3.25117745 C0,2.48388087 0.546449386,1.82297416 1.30658495,1.6714492 C6.83795768,0.562415495 12.5063506,-0.00016119676 18.1551691,-0.00016119676 C64.9393925,-0.00016119676 103,37.6795814 103,83.9946345 C103,107.813068 92.6615039,130.627245 74.6351989,146.588948 C74.3366907,146.853311 73.948467,147 73.5471937,147 L73.5471937,147 Z" id="Fill-6" fill="#E16C00" mask="url(#mask-4)"></path>
                </g>
                <path d="M140.912362,186.747188 L179.744962,186.747188 L179.744962,3.25281197 L105.852351,3.25281197 C141.745652,13.0551608 168.204226,45.9264522 168.204226,84.8561059 C168.204226,108.346288 158.266596,130.93544 140.912362,146.95066 L140.912362,186.747188 Z M181.372481,190 L139.284843,190 C138.384825,190 137.657325,189.27137 137.657325,188.373594 L137.657325,146.235041 C137.657325,145.776395 137.850999,145.338892 138.191151,145.031501 C155.195468,129.601787 164.949188,107.669703 164.949188,84.8561059 C164.949188,40.0112136 128.434175,3.52767458 83.55046,3.52767458 C78.1357047,3.52767458 72.6981642,4.07252059 67.3875702,5.14594854 L65.7942292,5.46960333 L65.3434065,3.25281197 L65,3.25281197 L65,0 L181.372481,0 C182.272499,0 183,0.727003475 183,1.62640599 L183,188.373594 C183,189.27137 182.272499,190 181.372481,190 L181.372481,190 Z" id="Fill-9" fill="#E16C00"></path>
                <g id="Group-13" transform="translate(24.000000, 0.000000)">
                    <mask id="mask-6" fill="white">
                        <use xlink:href="#path-5"></use>
                    </mask>
                    <g id="Clip-12"></g>
                    <path d="M3.24306345,186.748799 L113.756937,186.748799 L113.756937,148.204191 L43.346786,148.204191 C42.4517005,148.204191 41.7252543,147.475922 41.7252543,146.578591 L41.7252543,3.25103803 L3.24306345,3.25103803 L3.24306345,186.748799 Z M115.378468,190 L1.62153172,190 C0.724824681,190 0,189.271731 0,188.3744 L0,1.62543774 C0,0.728106372 0.724824681,-0.000162560031 1.62153172,-0.000162560031 L43.346786,-0.000162560031 C44.2434931,-0.000162560031 44.9683178,0.728106372 44.9683178,1.62543774 L44.9683178,144.95299 L115.378468,144.95299 C116.275175,144.95299 117,145.681259 117,146.578591 L117,188.3744 C117,189.271731 116.275175,190 115.378468,190 L115.378468,190 Z" id="Fill-11" fill="#E16C00" mask="url(#mask-6)"></path>
                </g>
            </g>
        </g>
    </g>
</svg>