<?xml version="1.0" encoding="UTF-8"?>
<svg width="164px" height="140px" viewBox="0 0 164 140" version="1.1" xmlns="http://www.w3.org/2000/svg" xmlns:xlink="http://www.w3.org/1999/xlink">
    <title>Lola - woordmerk</title>
    <defs>
        <polygon id="path-1" points="0 8.57403397e-15 31 8.57403397e-15 31 63 0 63"></polygon>
        <polygon id="path-3" points="1.71041581e-14 0 76 0 76 108 1.71041581e-14 108"></polygon>
        <polygon id="path-5" points="0 0 86 0 86 140 0 140"></polygon>
    </defs>
    <g id="Symbols" stroke="none" stroke-width="1" fill="none" fill-rule="evenodd">
        <g id="Footer_roze_mobiel_v1" transform="translate(-107.000000, -50.000000)">
            <g id="Lola---woordmerk" transform="translate(107.000000, 50.000000)">
                <path d="M18.5328947,23.1407591 C8.15008224,34.0919149 2.46710526,48.1360548 2.46710526,62.9996931 C2.46710526,77.8657034 8.15008224,91.9086573 18.5328947,102.859813 L18.5328947,23.1407591 Z M19.7664474,107 C19.4457237,107 19.1311678,106.880218 18.8955592,106.654886 C6.71052632,94.9791081 0,79.4762373 0,62.9996931 C0,46.524335 6.71052632,31.0214641 18.8955592,19.3456866 C19.2483553,19.007688 19.7787829,18.9068814 20.2401316,19.0907052 C20.7002467,19.274529 21,19.7062185 21,20.1853464 L21,105.81404 C21,106.294354 20.7002467,106.726043 20.2401316,106.909867 C20.0871711,106.971537 19.9255757,107 19.7664474,107 L19.7664474,107 Z" id="Fill-1" fill="#E16C00"></path>
                <g id="Group-5" transform="translate(133.000000, 77.000000)">
                    <mask id="mask-2" fill="white">
                        <use xlink:href="#path-1"></use>
                    </mask>
                    <g id="Clip-4"></g>
                    <path d="M2.34146931,60.586624 L27.9571436,60.586624 L2.34146931,6.43529302 L2.34146931,60.586624 Z M29.8291483,63 L1.17073465,63 C0.523318391,63 0,62.4594038 0,61.793312 L0,1.20671389 C0,0.644397283 0.375805824,0.156895329 0.907319358,0.0301930881 C1.44117436,-0.0940957765 1.98439524,0.173788961 2.22205437,0.678184547 L30.8816387,61.2647826 C31.0584197,61.6388559 31.0361757,62.0805037 30.8219313,62.4328566 C30.6088576,62.7852095 30.2330517,63 29.8291483,63 L29.8291483,63 Z" id="Fill-3" fill="#E16C00" mask="url(#mask-2)"></path>
                </g>
                <g id="Group-8" transform="translate(49.000000, 0.000000)">
                    <mask id="mask-4" fill="white">
                        <use xlink:href="#path-3"></use>
                    </mask>
                    <g id="Clip-7"></g>
                    <path d="M2.40719625,105.631395 L53.804447,105.631395 C66.3856582,94.3686756 73.5928038,78.3876947 73.5928038,61.7103437 C73.5928038,28.9892437 46.5876726,2.36848702 13.3960471,2.36848702 C9.71544406,2.36848702 6.02521221,2.70364469 2.40719625,3.36448561 L2.40719625,105.631395 Z M54.2678323,108 L1.20359812,108 C0.538008362,108 0,107.469432 0,106.815697 L0,2.38862017 C0,1.82489207 0.403205372,1.33932795 0.964082098,1.2280035 C5.04548334,0.413203221 9.22798682,-0.000118430273 13.3960471,-0.000118430273 C47.916445,-0.000118430273 76,27.6829578 76,61.7103437 C76,79.2096007 68.3715951,95.9710372 55.0706322,107.698003 C54.8503737,107.892228 54.5639174,108 54.2678323,108 L54.2678323,108 Z" id="Fill-6" fill="#E16C00" mask="url(#mask-4)"></path>
                </g>
                <path d="M103.969284,137.603191 L132.600099,137.603191 L132.600099,2.39680882 L78.1199537,2.39680882 C104.583659,9.6195922 124.091251,33.8405437 124.091251,62.5255517 C124.091251,79.8341066 116.764355,96.4787454 103.969284,108.279434 L103.969284,137.603191 Z M133.80005,140 L102.769334,140 C102.105761,140 101.569383,139.463115 101.569383,138.801596 L101.569383,107.752136 C101.569383,107.414186 101.712177,107.091815 101.962967,106.865316 C114.500048,95.4960538 121.691351,79.3355704 121.691351,62.5255517 C121.691351,29.4819469 94.7692647,2.59933917 61.6770341,2.59933917 C57.6847992,2.59933917 53.6757651,3.00080464 49.7603272,3.79175155 L48.5855758,4.03023403 L48.2531895,2.39680882 L48,2.39680882 L48,0 L133.80005,0 C134.463622,0 135,0.535686771 135,1.19840441 L135,138.801596 C135,139.463115 134.463622,140 133.80005,140 L133.80005,140 Z" id="Fill-9" fill="#E16C00"></path>
                <g id="Group-13" transform="translate(18.000000, 0.000000)">
                    <mask id="mask-6" fill="white">
                        <use xlink:href="#path-5"></use>
                    </mask>
                    <g id="Clip-12"></g>
                    <path d="M2.38379023,137.604379 L83.6162098,137.604379 L83.6162098,109.203088 L31.8617402,109.203088 C31.2038141,109.203088 30.6698451,108.666469 30.6698451,108.005277 L30.6698451,2.39550171 L2.38379023,2.39550171 L2.38379023,137.604379 Z M84.8081049,140 L1.19189511,140 C0.532777116,140 0,139.463381 0,138.802189 L0,1.19769096 C0,0.536499432 0.532777116,-0.000119781075 1.19189511,-0.000119781075 L31.8617402,-0.000119781075 C32.5208582,-0.000119781075 33.0536353,0.536499432 33.0536353,1.19769096 L33.0536353,106.807466 L84.8081049,106.807466 C85.4672229,106.807466 86,107.344086 86,108.005277 L86,138.802189 C86,139.463381 85.4672229,140 84.8081049,140 L84.8081049,140 Z" id="Fill-11" fill="#E16C00" mask="url(#mask-6)"></path>
                </g>
            </g>
        </g>
    </g>
</svg>