<?xml version="1.0" encoding="UTF-8"?>
<svg width="302px" height="333px" viewBox="0 0 302 333" version="1.1" xmlns="http://www.w3.org/2000/svg" xmlns:xlink="http://www.w3.org/1999/xlink">
    <title>Lola - gezicht</title>
    <defs>
        <polygon id="path-1" points="-1.0051976e-16 0 78.0059015 0 78.0059015 137.622961 -1.0051976e-16 137.622961"></polygon>
    </defs>
    <g id="DESiGN." stroke="none" stroke-width="1" fill="none" fill-rule="evenodd">
        <g id="1a_home_lola_v_praag_desktop" transform="translate(68.000000, -2778.000000)">
            <g id="Group-11" transform="translate(83.024547, 2944.722698) rotate(-340.000000) translate(-83.024547, -2944.722698) translate(-26.975453, 2808.035239)">
                <path d="M38.7571288,172.858129 L128.03857,172.858129 L83.3978495,81.2974902 L38.7571288,172.858129 Z M130.613934,176.077334 L36.1817645,176.077334 C35.6280611,176.077334 35.1129883,175.790825 34.8168214,175.320821 C34.5238737,174.850817 34.4916817,174.261703 34.7363413,173.762726 L81.9524262,76.9193709 C82.4900335,75.8119643 84.3056654,75.8119643 84.8432727,76.9193709 L132.059358,173.762726 C132.304017,174.261703 132.271825,174.850817 131.978878,175.320821 C131.68593,175.790825 131.170857,176.077334 130.613934,176.077334 L130.613934,176.077334 Z" id="Fill-2" fill="#B6DB79"></path>
                <g id="Group-6" transform="translate(-0.000000, 0.000000)">
                    <mask id="mask-2" fill="white">
                        <use xlink:href="#path-1"></use>
                    </mask>
                    <g id="Clip-5"></g>
                    <path d="M3.77016109,123.664486 L24.022182,133.853271 L74.2353472,34.0450282 L14.0619606,3.771621 L3.94721738,23.8755585 L42.4328174,43.2390787 C42.8126837,43.432231 43.1024121,43.7670284 43.2376188,44.1726482 C43.3728254,44.5782681 43.3406333,45.0192992 43.147481,45.3991655 L3.77016109,123.664486 Z M24.7368456,137.622961 C24.492186,137.622961 24.2443072,137.568234 24.0157436,137.452343 L0.885753085,125.818135 C0.502667648,125.624982 0.216158371,125.290185 0.0809517457,124.884565 C-0.051035674,124.478945 -0.0220628258,124.037914 0.171089496,123.658048 L39.5484094,45.3927271 L1.06280938,26.0292068 C0.679723942,25.8392737 0.38999546,25.5012572 0.25800804,25.0956373 C0.122801415,24.6932366 0.154993469,24.2489863 0.34814579,23.86912 L11.9083122,0.887212997 C12.1014646,0.504127559 12.4362619,0.214399077 12.8418818,0.0824116572 C13.2475017,-0.0560141732 13.6885328,-0.0206029143 14.0716182,0.172549407 L77.1197552,31.8913798 C77.9116797,32.2905613 78.2336002,33.2595421 77.8344188,34.0546858 L26.1758304,136.737679 C25.8925403,137.30104 25.3259602,137.622961 24.7368456,137.622961 L24.7368456,137.622961 Z" id="Fill-4" fill="#B6DB79" mask="url(#mask-2)"></path>
                </g>
                <path d="M31.2418938,270.155714 L53.7473585,270.155714 L53.7473585,227.073088 C53.7473585,226.184588 54.4652413,225.463486 55.3569612,225.463486 L142.970854,225.463486 L142.970854,202.793842 L31.2418938,202.793842 L31.2418938,270.155714 Z M55.3569612,273.374919 L29.6322912,273.374919 C28.7437905,273.374919 28.0226885,272.653817 28.0226885,271.765316 L28.0226885,201.184239 C28.0226885,200.295738 28.7437905,199.574636 29.6322912,199.574636 L144.580457,199.574636 C145.468958,199.574636 146.19006,200.295738 146.19006,201.184239 L146.19006,227.073088 C146.19006,227.964808 145.468958,228.682691 144.580457,228.682691 L56.9665639,228.682691 L56.9665639,271.765316 C56.9665639,272.653817 56.2454619,273.374919 55.3569612,273.374919 L55.3569612,273.374919 Z" id="Fill-7" fill="#B6DB79"></path>
                <path d="M167.320924,22.6744729 C140.047816,22.6744729 117.861052,44.8580171 117.861052,72.1246864 C117.861052,99.394575 140.047816,121.5749 167.320924,121.5749 C194.594031,121.5749 216.780795,99.394575 216.780795,72.1246864 C216.780795,44.8580171 194.594031,22.6744729 167.320924,22.6744729 M167.320924,124.794105 C138.274034,124.794105 114.641847,101.168357 114.641847,72.1246864 C114.641847,43.0842349 138.274034,19.4552676 167.320924,19.4552676 C196.367813,19.4552676 220,43.0842349 220,72.1246864 C220,101.168357 196.367813,124.794105 167.320924,124.794105" id="Fill-9" fill="#B6DB79"></path>
            </g>
        </g>
    </g>
</svg>