<?xml version="1.0" encoding="UTF-8"?>
<svg width="64px" height="64px" viewBox="0 0 64 64" version="1.1" xmlns="http://www.w3.org/2000/svg" xmlns:xlink="http://www.w3.org/1999/xlink">
    <title>Group 3</title>
    <defs>
        <polygon id="path-1" points="2.54080089e-16 0 14.5454545 0 14.5454545 25.4545455 2.54080089e-16 25.4545455"></polygon>
    </defs>
    <g id="DESiGN." stroke="none" stroke-width="1" fill="none" fill-rule="evenodd">
        <g id="Lola_van_praag_styleguide" transform="translate(-346.000000, -313.000000)">
            <g id="Group-3" transform="translate(346.000000, 313.000000)">
                <rect id="Rectangle-Copy-5" fill="#B6DB79" x="0" y="0" width="64" height="64" rx="20"></rect>
                <g id="Group-10-Copy-2" transform="translate(14.000000, 8.000000)">
                    <path d="M23.3367789,30.9090909 L5.75413018,30.9090909 C5.65103426,30.9090909 5.55453169,30.8569923 5.49998676,30.7715272 C5.44544183,30.6860622 5.43944788,30.5789381 5.48500189,30.4882046 L14.2763263,12.8783001 C14.3764252,12.6769303 14.7144839,12.6769303 14.8145828,12.8783001 L23.6059072,30.4882046 C23.6514612,30.5789381 23.6454673,30.6860622 23.5909223,30.7715272 C23.5363774,30.8569923 23.4398748,30.9090909 23.3367789,30.9090909" id="Fill-1" fill="#FF67D9"></path>
                    <g id="Group-5">
                        <mask id="mask-2" fill="white">
                            <use xlink:href="#path-1"></use>
                        </mask>
                        <g id="Clip-4"></g>
                        <path d="M4.61242741,25.4545455 C4.56680648,25.4545455 4.52118555,25.4444234 4.47796572,25.4229886 L0.16498692,23.2711673 C0.0941544222,23.2354425 0.0401296356,23.1729242 0.0149180685,23.0979022 C-0.00969322319,23.0234756 -0.00369046912,22.9413087 0.0317257799,22.87105 L7.37429455,8.39597322 L0.198002068,4.81456617 C0.126569294,4.77884142 0.0731447829,4.7169185 0.0479332159,4.64189651 C0.0227216488,4.56687452 0.0287244028,4.48530298 0.0647409272,4.41504429 L2.22093019,0.163798018 C2.25634644,0.0935393263 2.31937535,0.0399521884 2.39501006,0.0149448573 C2.47004448,-0.0100624737 2.55228221,-0.0035129346 2.62371499,0.0316164114 L14.3801088,5.8988126 C14.5283769,5.97264377 14.5878041,6.15186297 14.51337,6.29833448 L4.88075052,25.290807 C4.82792628,25.3944088 4.72227781,25.4545455 4.61242741,25.4545455" id="Fill-3" fill="#FF67D9" mask="url(#mask-2)"></path>
                    </g>
                    <path d="M10.5014897,49.0909091 L5.7517392,49.0909091 C5.58768825,49.0909091 5.45454545,48.966551 5.45454545,48.8133241 L5.45454545,36.6412214 C5.45454545,36.4879944 5.58768825,36.3636364 5.7517392,36.3636364 L26.9755335,36.3636364 C27.1401789,36.3636364 27.2727273,36.4879944 27.2727273,36.6412214 L27.2727273,41.1058987 C27.2727273,41.2596808 27.1401789,41.3834837 26.9755335,41.3834837 L10.7986834,41.3834837 L10.7986834,48.8133241 C10.7986834,48.966551 10.6655406,49.0909091 10.5014897,49.0909091" id="Fill-6" fill="#FF67D9"></path>
                    <path d="M30,23.6363636 C24.486067,23.6363636 20,19.1506965 20,13.6363636 C20,8.12264198 24.486067,3.63636364 30,3.63636364 C35.513933,3.63636364 40,8.12264198 40,13.6363636 C40,19.1506965 35.513933,23.6363636 30,23.6363636" id="Fill-8" fill="#FF67D9"></path>
                </g>
            </g>
        </g>
    </g>
</svg>